<svg width="600" height="500" viewBox="0 0 600 500" xmlns="http://www.w3.org/2000/svg">
  <defs>
    <!-- Gradients -->
    <linearGradient id="bloodGradient" x1="0%" y1="0%" x2="0%" y2="100%">
      <stop offset="0%" style="stop-color:#ffebee;stop-opacity:1" />
      <stop offset="100%" style="stop-color:#ffcdd2;stop-opacity:1" />
    </linearGradient>
    
    <linearGradient id="brainGradient" x1="0%" y1="0%" x2="0%" y2="100%">
      <stop offset="0%" style="stop-color:#e8f5e8;stop-opacity:1" />
      <stop offset="100%" style="stop-color:#c8e6c9;stop-opacity:1" />
    </linearGradient>
    
    <linearGradient id="mdcGradient" x1="0%" y1="0%" x2="100%" y2="100%">
      <stop offset="0%" style="stop-color:#2196f3;stop-opacity:1" />
      <stop offset="100%" style="stop-color:#1976d2;stop-opacity:1" />
    </linearGradient>
    
    <!-- Arrow marker -->
    <marker id="greenArrow" markerWidth="10" markerHeight="10" 
            refX="9" refY="3" orient="auto" markerUnits="strokeWidth">
      <path d="M0,0 L0,6 L9,3 z" fill="#4caf50"/>
    </marker>
    
    <!-- Blocked symbol -->
    <g id="blockedSymbol">
      <circle cx="0" cy="0" r="12" fill="#f44336" stroke="#d32f2f" stroke-width="2"/>
      <line x1="-8" y1="-8" x2="8" y2="8" stroke="white" stroke-width="3" stroke-linecap="round"/>
      <line x1="8" y1="-8" x2="-8" y2="8" stroke="white" stroke-width="3" stroke-linecap="round"/>
    </g>
    
    <!-- Success symbol -->
    <g id="successSymbol">
      <circle cx="0" cy="0" r="10" fill="#4caf50" stroke="#388e3c" stroke-width="2"/>
      <path d="M-4,0 L-1,3 L5,-3" stroke="white" stroke-width="2.5" fill="none" stroke-linecap="round" stroke-linejoin="round"/>
    </g>
  </defs>
  
  <!-- Title -->
  <text x="300" y="25" text-anchor="middle" font-family="Arial, sans-serif" font-size="18" font-weight="bold" fill="#2c3e50">
    Blood-Brain Barrier Penetration: MDC-CRNZ-χ1 vs AAB-003
  </text>
  
  <!-- BLOODSTREAM SECTION -->
  <rect x="50" y="60" width="500" height="120" fill="url(#bloodGradient)" stroke="#e57373" stroke-width="2" rx="10"/>
  <text x="80" y="85" font-family="Arial, sans-serif" font-size="16" font-weight="bold" fill="#c62828">
    BLOODSTREAM
  </text>
  
  <!-- AAB-003 Antibody (Large, blocked) -->
  <g transform="translate(150, 130)">
    <!-- Large antibody structure (Y-shaped) -->
    <g fill="#9e9e9e" stroke="#616161" stroke-width="2">
      <!-- Heavy chains -->
      <ellipse cx="0" cy="-15" rx="25" ry="8"/>
      <ellipse cx="-20" cy="5" rx="15" ry="20"/>
      <ellipse cx="20" cy="5" rx="15" ry="20"/>
      <!-- Light chains -->
      <ellipse cx="-20" cy="-5" rx="8" ry="15"/>
      <ellipse cx="20" cy="-5" rx="8" ry="15"/>
      <!-- Fc region -->
      <ellipse cx="0" cy="25" rx="18" ry="12"/>
    </g>
    <!-- Blocked symbol -->
    <use href="#blockedSymbol" transform="translate(35, -20)"/>
    <!-- Label -->
    <text x="0" y="50" text-anchor="middle" font-family="Arial, sans-serif" font-size="12" font-weight="bold" fill="#424242">
      AAB-003 Antibody
    </text>
    <text x="0" y="65" text-anchor="middle" font-family="Arial, sans-serif" font-size="11" fill="#666">
      &gt;150 kDa
    </text>
    <text x="0" y="78" text-anchor="middle" font-family="Arial, sans-serif" font-size="10" fill="#f44336">
      ❌ Too Large to Cross
    </text>
  </g>
  
  <!-- MDC-CRNZ-χ1 (Small molecule) -->
  <g transform="translate(450, 130)">
    <!-- Small metal complex -->
    <circle cx="0" cy="0" r="8" fill="url(#mdcGradient)" stroke="#1565c0" stroke-width="2"/>
    <text x="0" y="4" text-anchor="middle" font-family="Arial, sans-serif" font-size="8" font-weight="bold" fill="white">
      Zn
    </text>
    <!-- Three small arms -->
    <circle cx="-12" cy="-8" r="3" fill="#42a5f5"/>
    <circle cx="12" cy="-8" r="3" fill="#42a5f5"/>
    <circle cx="0" cy="12" r="3" fill="#42a5f5"/>
    <!-- Success symbol -->
    <use href="#successSymbol" transform="translate(20, -15)"/>
    <!-- Label -->
    <text x="0" y="35" text-anchor="middle" font-family="Arial, sans-serif" font-size="12" font-weight="bold" fill="#1976d2">
      MDC-CRNZ-χ1
    </text>
    <text x="0" y="50" text-anchor="middle" font-family="Arial, sans-serif" font-size="11" fill="#1976d2">
      542 Da
    </text>
    <text x="0" y="63" text-anchor="middle" font-family="Arial, sans-serif" font-size="10" fill="#4caf50">
      ✓ BBB-Permeable
    </text>
  </g>
  
  <!-- BLOOD-BRAIN BARRIER -->
  <g transform="translate(50, 180)">
    <!-- BBB structure with tight junctions -->
    <rect x="0" y="0" width="500" height="40" fill="#c62828" stroke="#8d1e1e" stroke-width="2"/>
    
    <!-- Tight junction cells (brick pattern) -->
    <g fill="#b71c1c" stroke="#ffffff" stroke-width="1">
      <rect x="0" y="5" width="60" height="30"/>
      <rect x="60" y="5" width="65" height="30"/>
      <rect x="125" y="5" width="70" height="30"/>
      <rect x="195" y="5" width="60" height="30"/>
      <rect x="255" y="5" width="65" height="30"/>
      <rect x="320" y="5" width="70" height="30"/>
      <rect x="390" y="5" width="60" height="30"/>
      <rect x="450" y="5" width="50" height="30"/>
    </g>
    
    <!-- Tight junction proteins -->
    <g stroke="#ffffff" stroke-width="2" fill="none">
      <line x1="60" y1="8" x2="60" y2="32"/>
      <line x1="125" y1="8" x2="125" y2="32"/>
      <line x1="195" y1="8" x2="195" y2="32"/>
      <line x1="255" y1="8" x2="255" y2="32"/>
      <line x1="320" y1="8" x2="320" y2="32"/>
      <line x1="390" y1="8" x2="390" y2="32"/>
      <line x1="450" y1="8" x2="450" y2="32"/>
    </g>
    
    <!-- BBB Label -->
    <text x="250" y="-10" text-anchor="middle" font-family="Arial, sans-serif" font-size="14" font-weight="bold" fill="#8d1e1e">
      Blood-Brain Barrier (BBB)
    </text>
    <text x="250" y="55" text-anchor="middle" font-family="Arial, sans-serif" font-size="11" fill="#666">
      Tight Endothelial Cell Junctions
    </text>
  </g>
  
  <!-- Penetration arrow for MDC-CRNZ-χ1 -->
  <path d="M 450 180 L 450 240" stroke="#4caf50" stroke-width="4" marker-end="url(#greenArrow)"/>
  <text x="470" y="210" font-family="Arial, sans-serif" font-size="10" font-weight="bold" fill="#4caf50">
    Crosses BBB
  </text>
  
  <!-- Blocked indicator for AAB-003 -->
  <line x1="150" y1="180" x2="150" y2="200" stroke="#f44336" stroke-width="6" stroke-linecap="round"/>
  <text x="100" y="175" font-family="Arial, sans-serif" font-size="10" font-weight="bold" fill="#f44336">
    Blocked at BBB
  </text>
  
  <!-- BRAIN INTERSTITIUM SECTION -->
  <rect x="50" y="240" width="500" height="200" fill="url(#brainGradient)" stroke="#81c784" stroke-width="2" rx="10"/>
  <text x="80" y="265" font-family="Arial, sans-serif" font-size="16" font-weight="bold" fill="#2e7d32">
    BRAIN INTERSTITIUM (CNS)
  </text>
  <text x="80" y="285" font-family="Arial, sans-serif" font-size="12" fill="#388e3c">
    Therapeutic Target Zone
  </text>
  
  <!-- Neurons -->
  <g transform="translate(120, 320)">
    <circle cx="0" cy="0" r="15" fill="#90caf9" stroke="#1976d2" stroke-width="2"/>
    <text x="0" y="4" text-anchor="middle" font-family="Arial, sans-serif" font-size="10" fill="#1976d2">N</text>
    <!-- Dendrites -->
    <path d="M-15,0 Q-25,-10 -30,-5 M-15,0 Q-25,10 -30,5" stroke="#1976d2" stroke-width="2" fill="none"/>
    <path d="M15,0 Q25,-10 30,-5 M15,0 Q25,10 30,5" stroke="#1976d2" stroke-width="2" fill="none"/>
    <text x="0" y="35" text-anchor="middle" font-family="Arial, sans-serif" font-size="9" fill="#1976d2">Neuron</text>
  </g>
  
  <!-- Amyloid plaques -->
  <g transform="translate(250, 310)">
    <circle cx="0" cy="0" r="20" fill="#ffab91" stroke="#ff5722" stroke-width="2" opacity="0.8"/>
    <circle cx="-5" cy="-3" r="4" fill="#ff5722"/>
    <circle cx="3" cy="2" r="3" fill="#ff5722"/>
    <circle cx="-2" cy="8" r="3" fill="#ff5722"/>
    <circle cx="8" cy="-5" r="2" fill="#ff5722"/>
    <text x="0" y="35" text-anchor="middle" font-family="Arial, sans-serif" font-size="9" fill="#d84315">Aβ Plaques</text>
  </g>
  
  <!-- Tau tangles -->
  <g transform="translate(380, 320)">
    <g fill="#ce93d8" stroke="#7b1fa2" stroke-width="1.5" opacity="0.8">
      <path d="M-10,-10 Q0,-15 10,-10 Q15,0 10,10 Q0,15 -10,10 Q-15,0 -10,-10"/>
      <path d="M-5,-5 Q0,-8 5,-5 Q8,0 5,5 Q0,8 -5,5 Q-8,0 -5,-5"/>
    </g>
    <text x="0" y="30" text-anchor="middle" font-family="Arial, sans-serif" font-size="9" fill="#6a1b9a">Tau Tangles</text>
  </g>
  
  <!-- MDC-CRNZ-χ1 in brain -->
  <g transform="translate(450, 350)">
    <circle cx="0" cy="0" r="6" fill="url(#mdcGradient)" stroke="#1565c0" stroke-width="1.5"/>
    <text x="0" y="3" text-anchor="middle" font-family="Arial, sans-serif" font-size="6" font-weight="bold" fill="white">Zn</text>
    <circle cx="-8" cy="-5" r="2" fill="#42a5f5"/>
    <circle cx="8" cy="-5" r="2" fill="#42a5f5"/>
    <circle cx="0" cy="8" r="2" fill="#42a5f5"/>
    <text x="0" y="25" text-anchor="middle" font-family="Arial, sans-serif" font-size="9" fill="#1976d2">Active in CNS</text>
  </g>
  
  <!-- Comparison box -->
  <g transform="translate(80, 370)">
    <rect x="0" y="0" width="180" height="60" fill="white" stroke="#bdbdbd" stroke-width="1" rx="5" opacity="0.9"/>
    <text x="10" y="18" font-family="Arial, sans-serif" font-size="12" font-weight="bold" fill="#2c3e50">
      Key Advantage:
    </text>
    <text x="10" y="33" font-family="Arial, sans-serif" font-size="10" fill="#424242">
      • MDC size: 542 Da (crosses BBB)
    </text>
    <text x="10" y="46" font-family="Arial, sans-serif" font-size="10" fill="#424242">
      • AAB-003 size: &gt;150 kDa (blocked)
    </text>
  </g>
  
  <!-- LogP information -->
  <g transform="translate(380, 380)">
    <rect x="0" y="0" width="140" height="45" fill="#e3f2fd" stroke="#1976d2" stroke-width="1" rx="5"/>
    <text x="10" y="18" font-family="Arial, sans-serif" font-size="11" font-weight="bold" fill="#1976d2">
      LogP Optimization:
    </text>
    <text x="10" y="32" font-family="Arial, sans-serif" font-size="10" fill="#1565c0">
      LogP = 2.1 (ideal for CNS)
    </text>
  </g>
  
  <!-- Molecular weight comparison -->
  <g transform="translate(100, 50)">
    <text x="0" y="0" font-family="Arial, sans-serif" font-size="11" font-weight="bold" fill="#424242">
      Size Comparison:
    </text>
    <text x="0" y="15" font-family="Arial, sans-serif" font-size="10" fill="#666">
      AAB-003: ~150,000 Da | MDC-CRNZ-χ1: 542 Da
    </text>
    <text x="0" y="28" font-family="Arial, sans-serif" font-size="9" fill="#888">
      (~275x smaller enables BBB penetration)
    </text>
  </g>
</svg>