<svg width="600" height="500" viewBox="0 0 600 500" xmlns="http://www.w3.org/2000/svg">
  <defs>
    <!-- Gradients -->
    <radialGradient id="damagedNeuronGradient" cx="50%" cy="50%" r="50%">
      <stop offset="0%" style="stop-color:#d7ccc8;stop-opacity:1" />
      <stop offset="100%" style="stop-color:#8d6e63;stop-opacity:1" />
    </radialGradient>
    
    <radialGradient id="healthyNeuronGradient" cx="50%" cy="50%" r="50%">
      <stop offset="0%" style="stop-color:#c8e6c9;stop-opacity:1" />
      <stop offset="100%" style="stop-color:#4caf50;stop-opacity:1" />
    </radialGradient>
    
    <linearGradient id="mdcGradient" x1="0%" y1="0%" x2="100%" y2="100%">
      <stop offset="0%" style="stop-color:#673ab7;stop-opacity:1" />
      <stop offset="100%" style="stop-color:#3f51b5;stop-opacity:1" />
    </linearGradient>
    
    <radialGradient id="rosGradient" cx="50%" cy="50%" r="50%">
      <stop offset="0%" style="stop-color:#ff5722;stop-opacity:0.8" />
      <stop offset="100%" style="stop-color:#d32f2f;stop-opacity:0.6" />
    </radialGradient>
    
    <!-- Arrow markers -->
    <marker id="neutralizeArrow" markerWidth="8" markerHeight="8" 
            refX="7" refY="3" orient="auto" markerUnits="strokeWidth">
      <path d="M0,0 L0,6 L7,3 z" fill="#673ab7"/>
    </marker>
    
    <marker id="protectionArrow" markerWidth="10" markerHeight="10" 
            refX="9" refY="3" orient="auto" markerUnits="strokeWidth">
      <path d="M0,0 L0,6 L9,3 z" fill="#4caf50"/>
    </marker>
    
    <!-- ROS symbols -->
    <g id="rosSymbol">
      <circle cx="0" cy="0" r="8" fill="url(#rosGradient)" stroke="#d32f2f" stroke-width="1"/>
      <text x="0" y="3" text-anchor="middle" font-family="Arial, sans-serif" font-size="6" fill="white" font-weight="bold">ROS</text>
    </g>
    
    <!-- Mitochondria damaged -->
    <g id="mitoSwollen">
      <ellipse cx="0" cy="0" rx="15" ry="10" fill="#ffab91" stroke="#ff5722" stroke-width="2"/>
      <path d="M-10,-5 Q-5,0 0,-5 Q5,0 10,-5" stroke="#ff5722" stroke-width="1.5" fill="none"/>
      <path d="M-10,0 Q-5,5 0,0 Q5,5 10,0" stroke="#ff5722" stroke-width="1.5" fill="none"/>
      <path d="M-10,5 Q-5,-2 0,5 Q5,-2 10,5" stroke="#ff5722" stroke-width="1.5" fill="none"/>
    </g>
    
    <!-- Mitochondria healthy -->
    <g id="mitoHealthy">
      <ellipse cx="0" cy="0" rx="12" ry="8" fill="#81c784" stroke="#4caf50" stroke-width="2"/>
      <path d="M-8,-4 Q-4,0 0,-4 Q4,0 8,-4" stroke="#4caf50" stroke-width="1.5" fill="none"/>
      <path d="M-8,0 Q-4,3 0,0 Q4,3 8,0" stroke="#4caf50" stroke-width="1.5" fill="none"/>
      <path d="M-8,4 Q-4,-1 0,4 Q4,-1 8,4" stroke="#4caf50" stroke-width="1.5" fill="none"/>
    </g>
  </defs>
  
  <!-- Title -->
  <text x="300" y="25" text-anchor="middle" font-family="Arial, sans-serif" font-size="18" font-weight="bold" fill="#2c3e50">
    ROS Protection Mechanism: MDC-CRNZ-χ1 Neuroprotection
  </text>
  
  <!-- LEFT SIDE: DAMAGED NEURON -->
  <g transform="translate(120, 200)">
    <!-- Damaged neuron body -->
    <ellipse cx="0" cy="0" rx="40" ry="30" fill="url(#damagedNeuronGradient)" stroke="#8d6e63" stroke-width="3" stroke-dasharray="3,3"/>
    
    <!-- Damaged membrane (jagged) -->
    <path d="M-40,-15 L-45,-10 L-42,-5 L-46,0 L-41,5 L-44,10 L-40,15" 
          stroke="#d32f2f" stroke-width="2" fill="none"/>
    <path d="M40,-15 L45,-10 L42,-5 L46,0 L41,5 L44,10 L40,15" 
          stroke="#d32f2f" stroke-width="2" fill="none"/>
    
    <!-- Nucleus (stressed) -->
    <circle cx="0" cy="0" r="12" fill="#bcaaa4" stroke="#8d6e63" stroke-width="2"/>
    
    <!-- Swollen mitochondria -->
    <use href="#mitoSwollen" transform="translate(-25, -10)"/>
    <use href="#mitoSwollen" transform="translate(20, -15)"/>
    <use href="#mitoSwollen" transform="translate(-15, 15)"/>
    
    <!-- Dendrites (damaged) -->
    <path d="M-40,0 Q-60,-20 -70,-15 Q-75,-10 -70,-5" 
          stroke="#8d6e63" stroke-width="3" fill="none" stroke-dasharray="2,2"/>
    <path d="M-40,10 Q-60,30 -70,25 Q-75,20 -70,15" 
          stroke="#8d6e63" stroke-width="3" fill="none" stroke-dasharray="2,2"/>
    <path d="M40,0 Q60,-20 70,-15 Q75,-10 70,-5" 
          stroke="#8d6e63" stroke-width="3" fill="none" stroke-dasharray="2,2"/>
    
    <!-- ROS symbols around damaged neuron -->
    <use href="#rosSymbol" transform="translate(-55, -30)"/>
    <use href="#rosSymbol" transform="translate(-30, -40)"/>
    <use href="#rosSymbol" transform="translate(35, -35)"/>
    <use href="#rosSymbol" transform="translate(50, -20)"/>
    <use href="#rosSymbol" transform="translate(-45, 25)"/>
    <use href="#rosSymbol" transform="translate(30, 30)"/>
    
    <!-- ROS labels -->
    <text x="-55" y="-45" text-anchor="middle" font-family="Arial, sans-serif" font-size="10" fill="#d32f2f" font-weight="bold">
      •OH
    </text>
    <text x="35" y="-50" text-anchor="middle" font-family="Arial, sans-serif" font-size="10" fill="#d32f2f" font-weight="bold">
      O₂⁻
    </text>
    <text x="50" y="-35" text-anchor="middle" font-family="Arial, sans-serif" font-size="9" fill="#d32f2f" font-weight="bold">
      H₂O₂
    </text>
    
    <!-- Label -->
    <text x="0" y="60" text-anchor="middle" font-family="Arial, sans-serif" font-size="14" font-weight="bold" fill="#8d6e63">
      Oxidative Damage
    </text>
    <text x="0" y="78" text-anchor="middle" font-family="Arial, sans-serif" font-size="11" fill="#d32f2f">
      ROS Burst • Lipid Peroxidation
    </text>
    <text x="0" y="92" text-anchor="middle" font-family="Arial, sans-serif" font-size="10" fill="#ff5722">
      Mitochondrial Swelling
    </text>
  </g>
  
  <!-- CENTER: MDC-CRNZ-χ1 INTERVENTION -->
  <g transform="translate(300, 200)">
    <!-- MDC-CRNZ-χ1 structure -->
    <circle cx="0" cy="0" r="15" fill="url(#mdcGradient)" stroke="#3f51b5" stroke-width="3"/>
    <text x="0" y="4" text-anchor="middle" font-family="Arial, sans-serif" font-size="10" font-weight="bold" fill="white">
      Zn²⁺
    </text>
    
    <!-- ROS Buffer Arm (highlighted) -->
    <g transform="translate(-25, -10)">
      <circle cx="0" cy="0" r="8" fill="#e91e63" stroke="#c2185b" stroke-width="2"/>
      <text x="0" y="3" text-anchor="middle" font-family="Arial, sans-serif" font-size="6" font-weight="bold" fill="white">
        SH
      </text>
    </g>
    
    <g transform="translate(-15, 20)">
      <circle cx="0" cy="0" r="6" fill="#9c27b0" stroke="#7b1fa2" stroke-width="2"/>
      <text x="0" y="3" text-anchor="middle" font-family="Arial, sans-serif" font-size="5" font-weight="bold" fill="white">
        Se
      </text>
    </g>
    
    <!-- Other arms (simplified) -->
    <circle cx="20" cy="-15" r="5" fill="#42a5f5"/>
    <circle cx="15" cy="18" r="5" fill="#ff9800"/>
    
    <!-- Neutralization arrows -->
    <path d="M-80,-30 Q-50,-20 -30,-15" stroke="#673ab7" stroke-width="2" marker-end="url(#neutralizeArrow)" fill="none"/>
    <path d="M-70,25 Q-45,22 -20,20" stroke="#673ab7" stroke-width="2" marker-end="url(#neutralizeArrow)" fill="none"/>
    <path d="M80,-35 Q50,-25 25,-20" stroke="#673ab7" stroke-width="2" marker-end="url(#neutralizeArrow)" fill="none"/>
    
    <!-- Quenching effect -->
    <g opacity="0.7">
      <circle cx="-40" cy="-25" r="12" fill="none" stroke="#673ab7" stroke-width="2" stroke-dasharray="4,4"/>
      <circle cx="-35" cy="22" r="10" fill="none" stroke="#673ab7" stroke-width="2" stroke-dasharray="4,4"/>
      <circle cx="40" cy="-30" r="11" fill="none" stroke="#673ab7" stroke-width="2" stroke-dasharray="4,4"/>
    </g>
    
    <!-- Label -->
    <text x="0" y="60" text-anchor="middle" font-family="Arial, sans-serif" font-size="12" font-weight="bold" fill="#673ab7">
      ROS Buffer Arm
    </text>
    <text x="0" y="75" text-anchor="middle" font-family="Arial, sans-serif" font-size="10" fill="#3f51b5">
      Thiol/Selenol Hybrid
    </text>
    <text x="0" y="88" text-anchor="middle" font-family="Arial, sans-serif" font-size="9" fill="#673ab7">
      R-SH / R-SeH Active
    </text>
  </g>
  
  <!-- RIGHT SIDE: PROTECTED NEURON -->
  <g transform="translate(480, 200)">
    <!-- Healthy neuron body -->
    <ellipse cx="0" cy="0" rx="40" ry="30" fill="url(#healthyNeuronGradient)" stroke="#4caf50" stroke-width="3"/>
    
    <!-- Intact membrane -->
    <ellipse cx="0" cy="0" rx="42" ry="32" fill="none" stroke="#2e7d32" stroke-width="2"/>
    
    <!-- Nucleus (healthy) -->
    <circle cx="0" cy="0" r="12" fill="#81c784" stroke="#4caf50" stroke-width="2"/>
    
    <!-- Healthy mitochondria -->
    <use href="#mitoHealthy" transform="translate(-25, -10)"/>
    <use href="#mitoHealthy" transform="translate(20, -15)"/>
    <use href="#mitoHealthy" transform="translate(-15, 15)"/>
    
    <!-- Dendrites (healthy) -->
    <path d="M-40,0 Q-60,-20 -70,-15 Q-75,-10 -70,-5" 
          stroke="#4caf50" stroke-width="4" fill="none"/>
    <path d="M-40,10 Q-60,30 -70,25 Q-75,20 -70,15" 
          stroke="#4caf50" stroke-width="4" fill="none"/>
    <path d="M40,0 Q60,-20 70,-15 Q75,-10 70,-5" 
          stroke="#4caf50" stroke-width="4" fill="none"/>
    
    <!-- Protection shield effect -->
    <circle cx="0" cy="0" r="50" fill="none" stroke="#4caf50" stroke-width="2" opacity="0.5" stroke-dasharray="6,6"/>
    
    <!-- Label -->
    <text x="0" y="70" text-anchor="middle" font-family="Arial, sans-serif" font-size="14" font-weight="bold" fill="#2e7d32">
      Neuroprotection
    </text>
    <text x="0" y="88" text-anchor="middle" font-family="Arial, sans-serif" font-size="11" fill="#4caf50">
      Intact Morphology
    </text>
    <text x="0" y="102" text-anchor="middle" font-family="Arial, sans-serif" font-size="10" fill="#2e7d32">
      ROS Neutralized
    </text>
  </g>
  
  <!-- Central intervention arrow -->
  <path d="M220,250 Q260,280 340,250" stroke="#673ab7" stroke-width="4" marker-end="url(#protectionArrow)" fill="none"/>
  <text x="280" y="275" text-anchor="middle" font-family="Arial, sans-serif" font-size="11" font-weight="bold" fill="#673ab7">
    MDC-CRNZ-χ1 Intervention
  </text>
  
  <!-- Mechanism explanation box -->
  <g transform="translate(50, 350)">
    <rect x="0" y="0" width="500" height="120" fill="white" stroke="#bdbdbd" stroke-width="2" rx="10" opacity="0.95"/>
    
    <text x="20" y="25" font-family="Arial, sans-serif" font-size="14" font-weight="bold" fill="#2c3e50">
      ROS Protection Mechanism
    </text>
    
    <text x="20" y="45" font-family="Arial, sans-serif" font-size="8" fill="#424242">
      <tspan font-weight="bold">Problem:</tspan> Reactive oxygen species (•OH, O₂⁻, H₂O₂) cause lipid peroxidation, mitochondrial dysfunction, and neuronal death
    </text>
    
    <text x="20" y="62" font-family="Arial, sans-serif" font-size="8" fill="#424242">
      <tspan font-weight="bold">Solution:</tspan> MDC-CRNZ-χ1's thiol/selenol hybrid arm (R-SH/R-SeH) scavenges ROS before cellular damage occurs
    </text>
    
    <text x="20" y="79" font-family="Arial, sans-serif" font-size="8" fill="#424242">
      <tspan font-weight="bold">Result:</tspan> Preserved mitochondrial function, intact membrane integrity, and sustained neuronal viability
    </text>
    
    <text x="20" y="100" font-family="Arial, sans-serif" font-size="10" font-style="italic" fill="#666">
      Key Advantage: Direct neuroprotection vs. AAB-003's inflammatory clearance approach
    </text>
  </g>
  
  <!-- Chemical equation -->
  <g transform="translate(200, 50)">
    <rect x="0" y="0" width="200" height="40" fill="#f5f5f5" stroke="#9e9e9e" stroke-width="1" rx="5"/>
    <text x="100" y="15" text-anchor="middle" font-family="Arial, sans-serif" font-size="10" font-weight="bold" fill="#2c3e50">
      Neutralization Chemistry:
    </text>
    <text x="100" y="30" text-anchor="middle" font-family="Arial, sans-serif" font-size="9" fill="#424242">
      R-SH + •OH → R-S• + H₂O (ROS quenched)
    </text>
  </g>
</svg>